<svg viewBox="0 0 700 500"><g transform="translate(60,10)"><g transform="translate(0,460)" fill="none" font-size="10" font-family="sans-serif" text-anchor="middle"><path class="domain" stroke="currentColor" d="M0,6V0H570V6"></path><g class="tick" opacity="1" transform="translate(24.25531914893617,0)"><line stroke="currentColor" y2="6"></line><text fill="currentColor" y="9" dy="0.71em">20</text></g><g class="tick" opacity="1" transform="translate(84.8936170212766,0)"><line stroke="currentColor" y2="6"></line><text fill="currentColor" y="9" dy="0.71em">25</text></g><g class="tick" opacity="1" transform="translate(145.531914893617,0)"><line stroke="currentColor" y2="6"></line><text fill="currentColor" y="9" dy="0.71em">30</text></g><g class="tick" opacity="1" transform="translate(206.17021276595747,0)"><line stroke="currentColor" y2="6"></line><text fill="currentColor" y="9" dy="0.71em">35</text></g><g class="tick" opacity="1" transform="translate(266.8085106382979,0)"><line stroke="currentColor" y2="6"></line><text fill="currentColor" y="9" dy="0.71em">40</text></g><g class="tick" opacity="1" transform="translate(327.44680851063833,0)"><line stroke="currentColor" y2="6"></line><text fill="currentColor" y="9" dy="0.71em">45</text></g><g class="tick" opacity="1" transform="translate(388.0851063829787,0)"><line stroke="currentColor" y2="6"></line><text fill="currentColor" y="9" dy="0.71em">50</text></g><g class="tick" opacity="1" transform="translate(448.72340425531917,0)"><line stroke="currentColor" y2="6"></line><text fill="currentColor" y="9" dy="0.71em">55</text></g><g class="tick" opacity="1" transform="translate(509.36170212765956,0)"><line stroke="currentColor" y2="6"></line><text fill="currentColor" y="9" dy="0.71em">60</text></g><g class="tick" opacity="1" transform="translate(570,0)"><line stroke="currentColor" y2="6"></line><text fill="currentColor" y="9" dy="0.71em">65</text></g></g><g fill="none" font-size="10" font-family="sans-serif" text-anchor="end"><path class="domain" stroke="currentColor" d="M-6,460H0V0H-6"></path><g class="tick" opacity="1" transform="translate(0,460)"><line stroke="currentColor" x2="-6"></line><text fill="currentColor" x="-9" dy="0.32em">0</text></g><g class="tick" opacity="1" transform="translate(0,414)"><line stroke="currentColor" x2="-6"></line><text fill="currentColor" x="-9" dy="0.32em">10</text></g><g class="tick" opacity="1" transform="translate(0,368)"><line stroke="currentColor" x2="-6"></line><text fill="currentColor" x="-9" dy="0.32em">20</text></g><g class="tick" opacity="1" transform="translate(0,322)"><line stroke="currentColor" x2="-6"></line><text fill="currentColor" x="-9" dy="0.32em">30</text></g><g class="tick" opacity="1" transform="translate(0,276)"><line stroke="currentColor" x2="-6"></line><text fill="currentColor" x="-9" dy="0.32em">40</text></g><g class="tick" opacity="1" transform="translate(0,230)"><line stroke="currentColor" x2="-6"></line><text fill="currentColor" x="-9" dy="0.32em">50</text></g><g class="tick" opacity="1" transform="translate(0,184)"><line stroke="currentColor" x2="-6"></line><text fill="currentColor" x="-9" dy="0.32em">60</text></g><g class="tick" opacity="1" transform="translate(0,138.00000000000003)"><line stroke="currentColor" x2="-6"></line><text fill="currentColor" x="-9" dy="0.32em">70</text></g><g class="tick" opacity="1" transform="translate(0,91.99999999999999)"><line stroke="currentColor" x2="-6"></line><text fill="currentColor" x="-9" dy="0.32em">80</text></g><g class="tick" opacity="1" transform="translate(0,45.99999999999999)"><line stroke="currentColor" x2="-6"></line><text fill="currentColor" x="-9" dy="0.32em">90</text></g><g class="tick" opacity="1" transform="translate(0,0)"><line stroke="currentColor" x2="-6"></line><text fill="currentColor" x="-9" dy="0.32em">100</text></g></g><path class="line series0" d="M12.127659574468085,433.16466242606344L54.57446808510638,412.6024625070104L109.14893617021276,416.68529353670147L200.10638297872342,421.64310946268864L321.3829787234042,417.04085791379356L563.936170212766,427.5448381729694"></path><path class="area series0" d="M12.127659574468085,412.27610748448126L54.57446808510638,402.592033885712L109.14893617021276,409.94795540049785L200.10638297872342,415.897001772126L321.3829787234042,409.3177954136058L563.936170212766,420.41179209449285L563.936170212766,433.47373767849956L321.3829787234042,423.6914567689611L200.10638297872342,426.70050815555385L109.14893617021276,422.59848111885924L54.57446808510638,421.0362759763773L12.127659574468085,445.23775598849073Z"></path><path class="line series1" d="M12.127659574468085,38.26856747977873L54.57446808510638,83.85434280133109L109.14893617021276,89.03561723938687L200.10638297872342,79.29276727128926L321.3829787234042,88.9934063511449L563.936170212766,95.50560591400169"></path><path class="area series1" d="M12.127659574468085,23.25937836993861L54.57446808510638,72.79917425130164L109.14893617021276,80.80261113675247L200.10638297872342,72.19365917455079L321.3829787234042,79.66005206146326L563.936170212766,85.60701901491376L563.936170212766,106.22401157027389L321.3829787234042,99.13527086197975L200.10638297872342,86.93347285874559L109.14893617021276,97.89093199822004L54.57446808510638,96.17135335702112L12.127659574468085,61.59712186883981Z"></path><path class="line series2" d="M12.127659574468085,32.16230841253952L54.57446808510638,82.17819852909487L109.14893617021276,78.12530430399417L200.10638297872342,72.83110789097688L321.3829787234042,82.87953460603293L563.936170212766,76.60572357220947"></path><path class="area series2" d="M12.127659574468085,12.620297844662849L54.57446808510638,66.49943818628797L109.14893617021276,67.07545705964402L200.10638297872342,63.30072094341368L321.3829787234042,70.77865642691033L563.936170212766,65.4648549053202L563.936170212766,89.2138327984389L321.3829787234042,96.5361476060943L200.10638297872342,83.49436351767437L109.14893617021276,90.57586026710939L54.57446808510638,100.60844792336694L12.127659574468085,76.77161550365477Z"></path><path class="line series3" d="M12.127659574468085,41.71977475630313L54.57446808510638,85.61701288212356L109.14893617021276,99.6004705131455L200.10638297872342,85.73497865567552L321.3829787234042,95.07565584441066L563.936170212766,117.52337999326225"></path><path class="area series3" d="M12.127659574468085,23.205232436527478L54.57446808510638,70.60362258094435L109.14893617021276,87.66575858431912L200.10638297872342,75.40308144408057L321.3829787234042,81.04351667385671L563.936170212766,99.94282550788087L563.936170212766,137.01960172884358L321.3829787234042,110.82683109606742L200.10638297872342,97.12505842430153L109.14893617021276,112.66830241501354L54.57446808510638,102.97862216945876L12.127659574468085,72.55267293651214Z"></path><rect class="bin" x="0" y="0" width="36.38297872340425" height="460"></rect><rect class="bin" x="36.38297872340425" y="0" width="48.51063829787235" height="460"></rect><rect class="bin" x="84.8936170212766" y="0" width="60.6382978723404" height="460"></rect><rect class="bin" x="145.531914893617" y="0" width="121.27659574468089" height="460"></rect><rect class="bin" x="266.8085106382979" y="0" width="121.27659574468083" height="460"></rect><rect class="bin" x="388.0851063829787" y="0" width="181.91489361702128" height="460"></rect></g></svg>