<svg viewBox="0 0 700 500"><g transform="translate(60,10)"><g transform="translate(0,460)" fill="none" font-size="10" font-family="sans-serif" text-anchor="middle"><path class="domain" stroke="currentColor" d="M0,6V0H570V6"></path><g class="tick" opacity="1" transform="translate(24.25531914893617,0)"><line stroke="currentColor" y2="6"></line><text fill="currentColor" y="9" dy="0.71em">20</text></g><g class="tick" opacity="1" transform="translate(84.8936170212766,0)"><line stroke="currentColor" y2="6"></line><text fill="currentColor" y="9" dy="0.71em">25</text></g><g class="tick" opacity="1" transform="translate(145.531914893617,0)"><line stroke="currentColor" y2="6"></line><text fill="currentColor" y="9" dy="0.71em">30</text></g><g class="tick" opacity="1" transform="translate(206.17021276595747,0)"><line stroke="currentColor" y2="6"></line><text fill="currentColor" y="9" dy="0.71em">35</text></g><g class="tick" opacity="1" transform="translate(266.8085106382979,0)"><line stroke="currentColor" y2="6"></line><text fill="currentColor" y="9" dy="0.71em">40</text></g><g class="tick" opacity="1" transform="translate(327.44680851063833,0)"><line stroke="currentColor" y2="6"></line><text fill="currentColor" y="9" dy="0.71em">45</text></g><g class="tick" opacity="1" transform="translate(388.0851063829787,0)"><line stroke="currentColor" y2="6"></line><text fill="currentColor" y="9" dy="0.71em">50</text></g><g class="tick" opacity="1" transform="translate(448.72340425531917,0)"><line stroke="currentColor" y2="6"></line><text fill="currentColor" y="9" dy="0.71em">55</text></g><g class="tick" opacity="1" transform="translate(509.36170212765956,0)"><line stroke="currentColor" y2="6"></line><text fill="currentColor" y="9" dy="0.71em">60</text></g><g class="tick" opacity="1" transform="translate(570,0)"><line stroke="currentColor" y2="6"></line><text fill="currentColor" y="9" dy="0.71em">65</text></g></g><g fill="none" font-size="10" font-family="sans-serif" text-anchor="end"><path class="domain" stroke="currentColor" d="M-6,460H0V0H-6"></path><g class="tick" opacity="1" transform="translate(0,460)"><line stroke="currentColor" x2="-6"></line><text fill="currentColor" x="-9" dy="0.32em">0</text></g><g class="tick" opacity="1" transform="translate(0,402.5)"><line stroke="currentColor" x2="-6"></line><text fill="currentColor" x="-9" dy="0.32em">2</text></g><g class="tick" opacity="1" transform="translate(0,345)"><line stroke="currentColor" x2="-6"></line><text fill="currentColor" x="-9" dy="0.32em">4</text></g><g class="tick" opacity="1" transform="translate(0,287.5)"><line stroke="currentColor" x2="-6"></line><text fill="currentColor" x="-9" dy="0.32em">6</text></g><g class="tick" opacity="1" transform="translate(0,230)"><line stroke="currentColor" x2="-6"></line><text fill="currentColor" x="-9" dy="0.32em">8</text></g><g class="tick" opacity="1" transform="translate(0,172.5)"><line stroke="currentColor" x2="-6"></line><text fill="currentColor" x="-9" dy="0.32em">10</text></g><g class="tick" opacity="1" transform="translate(0,115)"><line stroke="currentColor" x2="-6"></line><text fill="currentColor" x="-9" dy="0.32em">12</text></g><g class="tick" opacity="1" transform="translate(0,57.5)"><line stroke="currentColor" x2="-6"></line><text fill="currentColor" x="-9" dy="0.32em">14</text></g><g class="tick" opacity="1" transform="translate(0,0)"><line stroke="currentColor" x2="-6"></line><text fill="currentColor" x="-9" dy="0.32em">16</text></g></g><path class="line series0" d="M12.127659574468085,388.5423130884864L54.57446808510638,232.14501637417084L109.14893617021276,174.24441850240635L200.10638297872342,204.15079680367333L321.3829787234042,172.2857856148055L563.936170212766,65.93471835171938"></path><path class="area series0" d="M12.127659574468085,286.62364410113474L54.57446808510638,175.62789700451629L109.14893617021276,131.2096278622224L200.10638297872342,167.26271777514395L321.3829787234042,122.67528694978485L563.936170212766,8.075708305740344L563.936170212766,117.43340862515015L321.3829787234042,215.30358860687704L200.10638297872342,236.79237024075832L109.14893617021276,212.19465865312472L54.57446808510638,278.21789181036377L12.127659574468085,431.18741988484766Z"></path><path class="line series1" d="M12.127659574468085,422.55997595824545L54.57446808510638,237.5914169292574L109.14893617021276,202.6613958553657L200.10638297872342,224.20365013285985L321.3829787234042,183.5139874568178L563.936170212766,91.45278895655451"></path><path class="area series1" d="M12.127659574468085,335.3740134384849L54.57446808510638,181.60712573693468L109.14893617021276,161.40802328381957L200.10638297872342,188.53510759051707L321.3829787234042,134.6790950895103L563.936170212766,35.03481750589734L563.936170212766,141.35489368364617L321.3829787234042,225.6918033607498L200.10638297872342,255.5536230238708L109.14893617021276,238.7047668792184L54.57446808510638,283.08443920542805L12.127659574468085,448.99632533575027Z"></path><rect class="bin" x="0" y="0" width="36.38297872340425" height="460"></rect><rect class="bin" x="36.38297872340425" y="0" width="48.51063829787235" height="460"></rect><rect class="bin" x="84.8936170212766" y="0" width="60.6382978723404" height="460"></rect><rect class="bin" x="145.531914893617" y="0" width="121.27659574468089" height="460"></rect><rect class="bin" x="266.8085106382979" y="0" width="121.27659574468083" height="460"></rect><rect class="bin" x="388.0851063829787" y="0" width="181.91489361702128" height="460"></rect></g></svg>