<svg viewBox="0 0 700 500"><g transform="translate(60,10)"><g transform="translate(0,460)" fill="none" font-size="10" font-family="sans-serif" text-anchor="middle"><path class="domain" stroke="currentColor" d="M0,6V0H570V6"></path><g class="tick" opacity="1" transform="translate(24.25531914893617,0)"><line stroke="currentColor" y2="6"></line><text fill="currentColor" y="9" dy="0.71em">20</text></g><g class="tick" opacity="1" transform="translate(84.8936170212766,0)"><line stroke="currentColor" y2="6"></line><text fill="currentColor" y="9" dy="0.71em">25</text></g><g class="tick" opacity="1" transform="translate(145.531914893617,0)"><line stroke="currentColor" y2="6"></line><text fill="currentColor" y="9" dy="0.71em">30</text></g><g class="tick" opacity="1" transform="translate(206.17021276595747,0)"><line stroke="currentColor" y2="6"></line><text fill="currentColor" y="9" dy="0.71em">35</text></g><g class="tick" opacity="1" transform="translate(266.8085106382979,0)"><line stroke="currentColor" y2="6"></line><text fill="currentColor" y="9" dy="0.71em">40</text></g><g class="tick" opacity="1" transform="translate(327.44680851063833,0)"><line stroke="currentColor" y2="6"></line><text fill="currentColor" y="9" dy="0.71em">45</text></g><g class="tick" opacity="1" transform="translate(388.0851063829787,0)"><line stroke="currentColor" y2="6"></line><text fill="currentColor" y="9" dy="0.71em">50</text></g><g class="tick" opacity="1" transform="translate(448.72340425531917,0)"><line stroke="currentColor" y2="6"></line><text fill="currentColor" y="9" dy="0.71em">55</text></g><g class="tick" opacity="1" transform="translate(509.36170212765956,0)"><line stroke="currentColor" y2="6"></line><text fill="currentColor" y="9" dy="0.71em">60</text></g><g class="tick" opacity="1" transform="translate(570,0)"><line stroke="currentColor" y2="6"></line><text fill="currentColor" y="9" dy="0.71em">65</text></g></g><g fill="none" font-size="10" font-family="sans-serif" text-anchor="end"><path class="domain" stroke="currentColor" d="M-6,460H0V0H-6"></path><g class="tick" opacity="1" transform="translate(0,460)"><line stroke="currentColor" x2="-6"></line><text fill="currentColor" x="-9" dy="0.32em">0</text></g><g class="tick" opacity="1" transform="translate(0,429.3333333333333)"><line stroke="currentColor" x2="-6"></line><text fill="currentColor" x="-9" dy="0.32em">2</text></g><g class="tick" opacity="1" transform="translate(0,398.6666666666667)"><line stroke="currentColor" x2="-6"></line><text fill="currentColor" x="-9" dy="0.32em">4</text></g><g class="tick" opacity="1" transform="translate(0,368)"><line stroke="currentColor" x2="-6"></line><text fill="currentColor" x="-9" dy="0.32em">6</text></g><g class="tick" opacity="1" transform="translate(0,337.33333333333337)"><line stroke="currentColor" x2="-6"></line><text fill="currentColor" x="-9" dy="0.32em">8</text></g><g class="tick" opacity="1" transform="translate(0,306.6666666666667)"><line stroke="currentColor" x2="-6"></line><text fill="currentColor" x="-9" dy="0.32em">10</text></g><g class="tick" opacity="1" transform="translate(0,276)"><line stroke="currentColor" x2="-6"></line><text fill="currentColor" x="-9" dy="0.32em">12</text></g><g class="tick" opacity="1" transform="translate(0,245.33333333333334)"><line stroke="currentColor" x2="-6"></line><text fill="currentColor" x="-9" dy="0.32em">14</text></g><g class="tick" opacity="1" transform="translate(0,214.66666666666666)"><line stroke="currentColor" x2="-6"></line><text fill="currentColor" x="-9" dy="0.32em">16</text></g><g class="tick" opacity="1" transform="translate(0,184)"><line stroke="currentColor" x2="-6"></line><text fill="currentColor" x="-9" dy="0.32em">18</text></g><g class="tick" opacity="1" transform="translate(0,153.33333333333334)"><line stroke="currentColor" x2="-6"></line><text fill="currentColor" x="-9" dy="0.32em">20</text></g><g class="tick" opacity="1" transform="translate(0,122.66666666666669)"><line stroke="currentColor" x2="-6"></line><text fill="currentColor" x="-9" dy="0.32em">22</text></g><g class="tick" opacity="1" transform="translate(0,91.99999999999999)"><line stroke="currentColor" x2="-6"></line><text fill="currentColor" x="-9" dy="0.32em">24</text></g><g class="tick" opacity="1" transform="translate(0,61.33333333333332)"><line stroke="currentColor" x2="-6"></line><text fill="currentColor" x="-9" dy="0.32em">26</text></g><g class="tick" opacity="1" transform="translate(0,30.66666666666666)"><line stroke="currentColor" x2="-6"></line><text fill="currentColor" x="-9" dy="0.32em">28</text></g><g class="tick" opacity="1" transform="translate(0,0)"><line stroke="currentColor" x2="-6"></line><text fill="currentColor" x="-9" dy="0.32em">30</text></g></g><path class="line series0" d="M12.127659574468085,349.04789322371244L54.57446808510638,351.9360215872769L109.14893617021276,370.31477466785327L187.9787234042553,407.1569162172556L297.1276595744681,424.9179071232219L563.936170212766,440.1359807679599"></path><path class="area series0" d="M12.127659574468085,319.40750653411243L54.57446808510638,336.5697255458241L109.14893617021276,360.53835376990037L187.9787234042553,400.6468972590549L297.1276595744681,418.38204476854986L563.936170212766,434.6858199815141L563.936170212766,444.42483748116314L297.1276595744681,430.44768396023255L187.9787234042553,412.9756774869109L109.14893617021276,379.1843994563443L54.57446808510638,365.51750729416267L12.127659574468085,372.8304618178218Z"></path><path class="line series1" d="M12.127659574468085,244.10660087425123L54.57446808510638,288.9868428745636L109.14893617021276,324.13418550940247L187.9787234042553,369.27920054156294L297.1276595744681,407.0315889920913L563.936170212766,418.47960075737274"></path><path class="area series1" d="M12.127659574468085,205.91811372325586L54.57446808510638,270.39402069880003L109.14893617021276,312.4272252465097L187.9787234042553,360.9847327163952L297.1276595744681,399.18164150064064L563.936170212766,410.95318452323914L563.936170212766,424.878389341887L297.1276595744681,413.9000484851297L187.9787234042553,376.9190909768097L109.14893617021276,334.9962071614658L54.57446808510638,305.96544670805326L12.127659574468085,277.3747616965876Z"></path><path class="line series2" d="M12.127659574468085,273.92802380720275L54.57446808510638,291.6133137041324L109.14893617021276,334.80777190847516L187.9787234042553,373.6010668727544L297.1276595744681,389.1048882531625L563.936170212766,397.7560909022815"></path><path class="area series2" d="M12.127659574468085,237.77153926400925L54.57446808510638,273.1366246165502L109.14893617021276,323.50382646450714L187.9787234042553,365.4845630180055L297.1276595744681,380.1695329597836L563.936170212766,388.7529532722468L563.936170212766,405.66382666080483L297.1276595744681,397.0834086021149L187.9787234042553,381.05880809713653L109.14893617021276,345.2524817963362L54.57446808510638,308.4686667252596L12.127659574468085,304.8977727004023Z"></path><path class="line series3" d="M12.127659574468085,191.55531702519016L54.57446808510638,221.301379286349L109.14893617021276,254.34330786563694L187.9787234042553,294.36933512918023L297.1276595744681,332.4466072965316L563.936170212766,383.1341681580111"></path><path class="area series3" d="M12.127659574468085,150.32159031972765L54.57446808510638,200.1105499880641L109.14893617021276,240.439486489711L187.9787234042553,283.60116244660514L297.1276595744681,320.89457307134086L563.936170212766,373.25263760848804L563.936170212766,391.94303443410155L297.1276595744681,343.1197238516184L187.9787234042553,304.555472183771L109.14893617021276,267.49567339474913L54.57446808510638,241.06141754544703L12.127659574468085,228.33818366109853Z"></path><path class="line series4" d="M12.127659574468085,94.87473804412899L54.57446808510638,123.7449435688382L109.14893617021276,176.96010902688167L187.9787234042553,236.3872506985062L297.1276595744681,283.40824895932724L563.936170212766,334.0860254702116"></path><path class="area series4" d="M12.127659574468085,49.395092616727986L54.57446808510638,99.80025700261268L109.14893617021276,161.23774534212612L187.9787234042553,224.21317653291382L297.1276595744681,270.16085898026495L563.936170212766,321.83900016163244L563.936170212766,345.336658071995L297.1276595744681,295.8441595165763L187.9787234042553,248.03543835001523L109.14893617021276,192.03466931282333L54.57446808510638,146.52321659960947L12.127659574468085,136.7672181857739Z"></path><path class="line series5" d="M12.127659574468085,40.86722580742108L54.57446808510638,71.62385266300203L109.14893617021276,140.0722262128775L187.9787234042553,203.97188188451227L297.1276595744681,268.1479346489213L563.936170212766,320.3247449941686"></path><path class="area series5" d="M12.127659574468085,-6.383807721418302L54.57446808510638,46.559384035508494L109.14893617021276,123.64597114560621L187.9787234042553,191.13872643627198L297.1276595744681,254.4439360387128L563.936170212766,307.5251065409895L563.936170212766,332.1493900099904L297.1276595744681,281.06144003873845L187.9787234042553,216.31054144999177L109.14893617021276,155.90008808164413L54.57446808510638,95.66315567788878L12.127659574468085,85.01356950830956Z"></path><rect class="bin" x="0" y="0" width="36.38297872340425" height="460"></rect><rect class="bin" x="36.38297872340425" y="0" width="48.51063829787235" height="460"></rect><rect class="bin" x="84.8936170212766" y="0" width="60.6382978723404" height="460"></rect><rect class="bin" x="145.531914893617" y="0" width="97.0212765957447" height="460"></rect><rect class="bin" x="242.5531914893617" y="0" width="121.27659574468086" height="460"></rect><rect class="bin" x="363.82978723404256" y="0" width="206.17021276595744" height="460"></rect></g></svg>