<svg viewBox="0 0 700 500"><g transform="translate(60,10)"><g transform="translate(0,460)" fill="none" font-size="10" font-family="sans-serif" text-anchor="middle"><path class="domain" stroke="currentColor" d="M0,6V0H570V6"></path><g class="tick" opacity="1" transform="translate(24.25531914893617,0)"><line stroke="currentColor" y2="6"></line><text fill="currentColor" y="9" dy="0.71em">20</text></g><g class="tick" opacity="1" transform="translate(84.8936170212766,0)"><line stroke="currentColor" y2="6"></line><text fill="currentColor" y="9" dy="0.71em">25</text></g><g class="tick" opacity="1" transform="translate(145.531914893617,0)"><line stroke="currentColor" y2="6"></line><text fill="currentColor" y="9" dy="0.71em">30</text></g><g class="tick" opacity="1" transform="translate(206.17021276595747,0)"><line stroke="currentColor" y2="6"></line><text fill="currentColor" y="9" dy="0.71em">35</text></g><g class="tick" opacity="1" transform="translate(266.8085106382979,0)"><line stroke="currentColor" y2="6"></line><text fill="currentColor" y="9" dy="0.71em">40</text></g><g class="tick" opacity="1" transform="translate(327.44680851063833,0)"><line stroke="currentColor" y2="6"></line><text fill="currentColor" y="9" dy="0.71em">45</text></g><g class="tick" opacity="1" transform="translate(388.0851063829787,0)"><line stroke="currentColor" y2="6"></line><text fill="currentColor" y="9" dy="0.71em">50</text></g><g class="tick" opacity="1" transform="translate(448.72340425531917,0)"><line stroke="currentColor" y2="6"></line><text fill="currentColor" y="9" dy="0.71em">55</text></g><g class="tick" opacity="1" transform="translate(509.36170212765956,0)"><line stroke="currentColor" y2="6"></line><text fill="currentColor" y="9" dy="0.71em">60</text></g><g class="tick" opacity="1" transform="translate(570,0)"><line stroke="currentColor" y2="6"></line><text fill="currentColor" y="9" dy="0.71em">65</text></g></g><g fill="none" font-size="10" font-family="sans-serif" text-anchor="end"><path class="domain" stroke="currentColor" d="M-6,460H0V0H-6"></path><g class="tick" opacity="1" transform="translate(0,460)"><line stroke="currentColor" x2="-6"></line><text fill="currentColor" x="-9" dy="0.32em">0</text></g><g class="tick" opacity="1" transform="translate(0,414)"><line stroke="currentColor" x2="-6"></line><text fill="currentColor" x="-9" dy="0.32em">10</text></g><g class="tick" opacity="1" transform="translate(0,368)"><line stroke="currentColor" x2="-6"></line><text fill="currentColor" x="-9" dy="0.32em">20</text></g><g class="tick" opacity="1" transform="translate(0,322)"><line stroke="currentColor" x2="-6"></line><text fill="currentColor" x="-9" dy="0.32em">30</text></g><g class="tick" opacity="1" transform="translate(0,276)"><line stroke="currentColor" x2="-6"></line><text fill="currentColor" x="-9" dy="0.32em">40</text></g><g class="tick" opacity="1" transform="translate(0,230)"><line stroke="currentColor" x2="-6"></line><text fill="currentColor" x="-9" dy="0.32em">50</text></g><g class="tick" opacity="1" transform="translate(0,184)"><line stroke="currentColor" x2="-6"></line><text fill="currentColor" x="-9" dy="0.32em">60</text></g><g class="tick" opacity="1" transform="translate(0,138.00000000000003)"><line stroke="currentColor" x2="-6"></line><text fill="currentColor" x="-9" dy="0.32em">70</text></g><g class="tick" opacity="1" transform="translate(0,91.99999999999999)"><line stroke="currentColor" x2="-6"></line><text fill="currentColor" x="-9" dy="0.32em">80</text></g><g class="tick" opacity="1" transform="translate(0,45.99999999999999)"><line stroke="currentColor" x2="-6"></line><text fill="currentColor" x="-9" dy="0.32em">90</text></g><g class="tick" opacity="1" transform="translate(0,0)"><line stroke="currentColor" x2="-6"></line><text fill="currentColor" x="-9" dy="0.32em">100</text></g></g><path class="line series0" d="M0,460L24.25531914893617,442.03327276720404L78.82978723404256,350.9371151832784L151.59574468085106,267.89643169244596L230.4255319148936,214.7584117393493L345.63829787234044,186.68625388115424L485.1063829787234,218.61137625014732L570,201.4424315319313L570,276.7838210071114"></path><path class="area series0" d="M0,407.49982723784336L24.25531914893617,428.65053254152144L78.82978723404256,341.6971569568862L151.59574468085106,258.39743117965537L230.4255319148936,205.2143789553331L345.63829787234044,176.7964533877589L485.1063829787234,204.2162415316779L570,177.853942262271L570,203.09926443530898L570,341.649512658853L570,225.6572821257134L485.1063829787234,233.09651252150204L345.63829787234044,196.74494712999402L230.4255319148936,224.35545789467082L151.59574468085106,277.2643788044928L78.82978723404256,359.6673004604483L24.25531914893617,449.83849935925093L0,460Z"></path><path class="line series1" d="M0,460L24.25531914893617,453.3344875771779L78.82978723404256,376.10213525677784L151.59574468085106,282.5820355214058L230.4255319148936,236.51691176790874L345.63829787234044,186.7016632193552L485.1063829787234,210.0311962082675L570,163.960043955473L570,186.88199939644184"></path><path class="area series1" d="M0,375.36895497821337L24.25531914893617,434.5843480437034L78.82978723404256,361.88083838118683L151.59574468085106,268.2872295393668L230.4255319148936,222.04972219011196L345.63829787234044,171.62389153023165L485.1063829787234,187.02642930898554L570,128.3824038170368L570,100.24712914832278L570,288.3724139670151L570,203.35118752150728L485.1063829787234,233.4457097504298L345.63829787234044,202.17539204861367L230.4255319148936,250.93267486770023L151.59574468085106,296.46069054938255L78.82978723404256,388.6685049592128L24.25531914893617,458.3058269434947L0,460Z"></path><path class="line series2" d="M0,460L24.25531914893617,429.13015446512134L78.82978723404256,325.6305367672195L151.59574468085106,252.4687918173748L230.4255319148936,190.35739405189955L345.63829787234044,186.85166415157855L485.1063829787234,226.14069631353718L570,232.53474761854747L570,410.08883922430095"></path><path class="area series2" d="M0,343.7475283002699L24.25531914893617,406.0165944982376L78.82978723404256,312.4314443545817L151.59574468085106,239.3322462591307L230.4255319148936,177.51034160779355L345.63829787234044,173.56569395243523L485.1063829787234,207.52373436570863L570,202.07629612043638L570,312.0702167522107L570,446.06103803046705L570,262.90454243430116L485.1063829787234,244.80838125136307L345.63829787234044,200.4429523534539L230.4255319148936,203.46454980785947L151.59574468085106,265.4589797982884L78.82978723404256,338.1096363026932L24.25531914893617,442.76743121566795L0,460Z"></path><path class="line series3" d="M0,460L24.25531914893617,454.4178444824991L78.82978723404256,459.1144496228002L151.59574468085106,456.6460777941625L230.4255319148936,456.55287009977803L345.63829787234044,457.34174256607906L485.1063829787234,447.82873586335745L570,442.5495552730481L570,460"></path><path class="area series3" d="M0,375.36895497821337L24.25531914893617,436.2622529041358L78.82978723404256,455.8202308121453L151.59574468085106,453.12909017295493L230.4255319148936,453.0115952876649L345.63829787234044,453.7255319465912L485.1063829787234,437.7889930222754L570,420.2684485862429L570,380.75756884973646L570,460L570,452.5569036759784L485.1063829787234,453.3987771552753L345.63829787234044,458.8789452394694L230.4255319148936,458.3063631210492L151.59574468085106,458.36931626562256L78.82978723404256,459.8134447033085L24.25531914893617,458.7277973213459L0,460Z"></path><path class="line series4" d="M0,460L24.25531914893617,460L78.82978723404256,459.41152084660075L151.59574468085106,453.9000755196947L230.4255319148936,452.26463859374314L345.63829787234044,450.4254662043085L485.1063829787234,428.86800975545873L570,385.54335898882255L570,312.33820394398515"></path><path class="area series4" d="M0,343.7475283002699L24.25531914893617,449.05467057155676L78.82978723404256,457.21992375962594L151.59574468085106,450.0806514793424L230.4255319148936,448.07012820478786L345.63829787234044,445.662355269769L485.1063829787234,418.103467407006L570,360.2527925701687L570,207.89795093146017L570,388.4102854040423L570,405.39355806290484L485.1063829787234,437.0188215221506L345.63829787234044,453.6288446075815L230.4255319148936,455.0008248583476L151.59574468085106,456.26105564888536L78.82978723404256,459.87590122505713L24.25531914893617,460L0,460Z"></path><rect class="bin" x="0" y="0" width="12.127659574468085" height="460"></rect><rect class="bin" x="12.127659574468085" y="0" width="36.38297872340426" height="460"></rect><rect class="bin" x="48.51063829787234" y="0" width="72.7659574468085" height="460"></rect><rect class="bin" x="121.27659574468085" y="0" width="72.76595744680851" height="460"></rect><rect class="bin" x="194.04255319148936" y="0" width="84.89361702127658" height="460"></rect><rect class="bin" x="278.93617021276594" y="0" width="145.531914893617" height="460"></rect><rect class="bin" x="424.46808510638294" y="0" width="133.40425531914894" height="460"></rect><rect class="bin" x="557.8723404255319" y="0" width="12.127659574468112" height="460"></rect><rect class="bin" x="570" y="0" width="0" height="460"></rect></g></svg>