<svg viewBox="0 0 700 500"><g transform="translate(60,10)"><g transform="translate(0,460)" fill="none" font-size="10" font-family="sans-serif" text-anchor="middle"><path class="domain" stroke="currentColor" d="M0,6V0H570V6"></path><g class="tick" opacity="1" transform="translate(24.25531914893617,0)"><line stroke="currentColor" y2="6"></line><text fill="currentColor" y="9" dy="0.71em">20</text></g><g class="tick" opacity="1" transform="translate(84.8936170212766,0)"><line stroke="currentColor" y2="6"></line><text fill="currentColor" y="9" dy="0.71em">25</text></g><g class="tick" opacity="1" transform="translate(145.531914893617,0)"><line stroke="currentColor" y2="6"></line><text fill="currentColor" y="9" dy="0.71em">30</text></g><g class="tick" opacity="1" transform="translate(206.17021276595747,0)"><line stroke="currentColor" y2="6"></line><text fill="currentColor" y="9" dy="0.71em">35</text></g><g class="tick" opacity="1" transform="translate(266.8085106382979,0)"><line stroke="currentColor" y2="6"></line><text fill="currentColor" y="9" dy="0.71em">40</text></g><g class="tick" opacity="1" transform="translate(327.44680851063833,0)"><line stroke="currentColor" y2="6"></line><text fill="currentColor" y="9" dy="0.71em">45</text></g><g class="tick" opacity="1" transform="translate(388.0851063829787,0)"><line stroke="currentColor" y2="6"></line><text fill="currentColor" y="9" dy="0.71em">50</text></g><g class="tick" opacity="1" transform="translate(448.72340425531917,0)"><line stroke="currentColor" y2="6"></line><text fill="currentColor" y="9" dy="0.71em">55</text></g><g class="tick" opacity="1" transform="translate(509.36170212765956,0)"><line stroke="currentColor" y2="6"></line><text fill="currentColor" y="9" dy="0.71em">60</text></g><g class="tick" opacity="1" transform="translate(570,0)"><line stroke="currentColor" y2="6"></line><text fill="currentColor" y="9" dy="0.71em">65</text></g></g><g fill="none" font-size="10" font-family="sans-serif" text-anchor="end"><path class="domain" stroke="currentColor" d="M-6,460H0V0H-6"></path><g class="tick" opacity="1" transform="translate(0,460)"><line stroke="currentColor" x2="-6"></line><text fill="currentColor" x="-9" dy="0.32em">0</text></g><g class="tick" opacity="1" transform="translate(0,394.28571428571433)"><line stroke="currentColor" x2="-6"></line><text fill="currentColor" x="-9" dy="0.32em">5</text></g><g class="tick" opacity="1" transform="translate(0,328.57142857142856)"><line stroke="currentColor" x2="-6"></line><text fill="currentColor" x="-9" dy="0.32em">10</text></g><g class="tick" opacity="1" transform="translate(0,262.85714285714283)"><line stroke="currentColor" x2="-6"></line><text fill="currentColor" x="-9" dy="0.32em">15</text></g><g class="tick" opacity="1" transform="translate(0,197.14285714285717)"><line stroke="currentColor" x2="-6"></line><text fill="currentColor" x="-9" dy="0.32em">20</text></g><g class="tick" opacity="1" transform="translate(0,131.42857142857142)"><line stroke="currentColor" x2="-6"></line><text fill="currentColor" x="-9" dy="0.32em">25</text></g><g class="tick" opacity="1" transform="translate(0,65.71428571428574)"><line stroke="currentColor" x2="-6"></line><text fill="currentColor" x="-9" dy="0.32em">30</text></g><g class="tick" opacity="1" transform="translate(0,0)"><line stroke="currentColor" x2="-6"></line><text fill="currentColor" x="-9" dy="0.32em">35</text></g></g><path class="line series0" d="M6.0638297872340425,407.6553669735285L42.4468085106383,388.6934982153506L103.08510638297874,390.612591849485L260.74468085106383,397.68007384266986L563.936170212766,414.0027057737018"></path><path class="area series0" d="M6.0638297872340425,378.0649557052162L42.4468085106383,375.8547791946841L103.08510638297874,383.1525573825581L260.74468085106383,392.9323303886129L563.936170212766,406.1114982234107L563.936170212766,420.77432061736687L260.74468085106383,402.10732354431406L103.08510638297874,397.38508108296224L42.4468085106383,399.6693817488103L6.0638297872340425,426.84684656636165Z"></path><path class="line series1" d="M6.0638297872340425,383.42661582119143L42.4468085106383,360.3261637152656L103.08510638297874,351.156422381103L260.74468085106383,342.76200623477786L563.936170212766,336.6965011676561"></path><path class="area series1" d="M6.0638297872340425,349.45783392817646L42.4468085106383,345.5378283770858L103.08510638297874,342.0697020769819L260.74468085106383,336.46602740128253L563.936170212766,324.59921386392557L563.936170212766,347.81581744722973L260.74468085106383,348.76708146218124L103.08510638297874,359.6017525342916L42.4468085106383,373.34186567968015L6.0638297872340425,407.41305642832947Z"></path><path class="line series2" d="M6.0638297872340425,89.87924159592261L42.4468085106383,159.85442944795392L103.08510638297874,147.46050421263027L260.74468085106383,206.42943401484186L563.936170212766,266.3426036650677"></path><path class="area series2" d="M6.0638297872340425,32.544932475044575L42.4468085106383,137.28071769257843L103.08510638297874,133.72524148243238L260.74468085106383,197.807661006397L563.936170212766,251.81259805440715L563.936170212766,280.02352360279747L260.74468085106383,214.83376013073223L103.08510638297874,160.79265643328384L42.4468085106383,181.29296547001172L6.0638297872340425,142.27847803450578Z"></path><rect class="bin" x="0" y="0" width="24.25531914893617" height="460"></rect><rect class="bin" x="24.25531914893617" y="0" width="48.51063829787233" height="460"></rect><rect class="bin" x="72.7659574468085" y="0" width="72.7659574468085" height="460"></rect><rect class="bin" x="145.531914893617" y="0" width="242.55319148936172" height="460"></rect><rect class="bin" x="388.0851063829787" y="0" width="181.91489361702128" height="460"></rect></g></svg>