<svg viewBox="0 0 700 500"><g transform="translate(60,10)"><g transform="translate(0,460)" fill="none" font-size="10" font-family="sans-serif" text-anchor="middle"><path class="domain" stroke="currentColor" d="M0,6V0H570V6"></path><g class="tick" opacity="1" transform="translate(24.25531914893617,0)"><line stroke="currentColor" y2="6"></line><text fill="currentColor" y="9" dy="0.71em">20</text></g><g class="tick" opacity="1" transform="translate(84.8936170212766,0)"><line stroke="currentColor" y2="6"></line><text fill="currentColor" y="9" dy="0.71em">25</text></g><g class="tick" opacity="1" transform="translate(145.531914893617,0)"><line stroke="currentColor" y2="6"></line><text fill="currentColor" y="9" dy="0.71em">30</text></g><g class="tick" opacity="1" transform="translate(206.17021276595747,0)"><line stroke="currentColor" y2="6"></line><text fill="currentColor" y="9" dy="0.71em">35</text></g><g class="tick" opacity="1" transform="translate(266.8085106382979,0)"><line stroke="currentColor" y2="6"></line><text fill="currentColor" y="9" dy="0.71em">40</text></g><g class="tick" opacity="1" transform="translate(327.44680851063833,0)"><line stroke="currentColor" y2="6"></line><text fill="currentColor" y="9" dy="0.71em">45</text></g><g class="tick" opacity="1" transform="translate(388.0851063829787,0)"><line stroke="currentColor" y2="6"></line><text fill="currentColor" y="9" dy="0.71em">50</text></g><g class="tick" opacity="1" transform="translate(448.72340425531917,0)"><line stroke="currentColor" y2="6"></line><text fill="currentColor" y="9" dy="0.71em">55</text></g><g class="tick" opacity="1" transform="translate(509.36170212765956,0)"><line stroke="currentColor" y2="6"></line><text fill="currentColor" y="9" dy="0.71em">60</text></g><g class="tick" opacity="1" transform="translate(570,0)"><line stroke="currentColor" y2="6"></line><text fill="currentColor" y="9" dy="0.71em">65</text></g></g><g fill="none" font-size="10" font-family="sans-serif" text-anchor="end"><path class="domain" stroke="currentColor" d="M-6,460H0V0H-6"></path><g class="tick" opacity="1" transform="translate(0,460)"><line stroke="currentColor" x2="-6"></line><text fill="currentColor" x="-9" dy="0.32em">0</text></g><g class="tick" opacity="1" transform="translate(0,414)"><line stroke="currentColor" x2="-6"></line><text fill="currentColor" x="-9" dy="0.32em">10</text></g><g class="tick" opacity="1" transform="translate(0,368)"><line stroke="currentColor" x2="-6"></line><text fill="currentColor" x="-9" dy="0.32em">20</text></g><g class="tick" opacity="1" transform="translate(0,322)"><line stroke="currentColor" x2="-6"></line><text fill="currentColor" x="-9" dy="0.32em">30</text></g><g class="tick" opacity="1" transform="translate(0,276)"><line stroke="currentColor" x2="-6"></line><text fill="currentColor" x="-9" dy="0.32em">40</text></g><g class="tick" opacity="1" transform="translate(0,230)"><line stroke="currentColor" x2="-6"></line><text fill="currentColor" x="-9" dy="0.32em">50</text></g><g class="tick" opacity="1" transform="translate(0,184)"><line stroke="currentColor" x2="-6"></line><text fill="currentColor" x="-9" dy="0.32em">60</text></g><g class="tick" opacity="1" transform="translate(0,138.00000000000003)"><line stroke="currentColor" x2="-6"></line><text fill="currentColor" x="-9" dy="0.32em">70</text></g><g class="tick" opacity="1" transform="translate(0,91.99999999999999)"><line stroke="currentColor" x2="-6"></line><text fill="currentColor" x="-9" dy="0.32em">80</text></g><g class="tick" opacity="1" transform="translate(0,45.99999999999999)"><line stroke="currentColor" x2="-6"></line><text fill="currentColor" x="-9" dy="0.32em">90</text></g><g class="tick" opacity="1" transform="translate(0,0)"><line stroke="currentColor" x2="-6"></line><text fill="currentColor" x="-9" dy="0.32em">100</text></g></g><path class="line series0" d="M12.127659574468085,441.28596910005075L121.27659574468085,452.0124251472617L309.25531914893617,456.3705953804915L570,458.4914609238802"></path><path class="area series0" d="M12.127659574468085,434.1958176489988L121.27659574468085,451.00840428780117L309.25531914893617,455.3678838090753L570,457.33601595467377L570,459.14669189731103L309.25531914893617,457.1576054057828L121.27659574468085,452.90609827794736L12.127659574468085,446.488599899854Z"></path><path class="line series1" d="M12.127659574468085,433.9299271060607L121.27659574468085,449.72237799819123L309.25531914893617,456.5705460697407L570,459.2752049659394"></path><path class="area series1" d="M12.127659574468085,422.1822513351291L121.27659574468085,448.14031073800226L309.25531914893617,455.19179458680094L570,458.0006058534941L570,459.73772180000896L309.25531914893617,457.5560636514901L121.27659574468085,451.0975919961132L12.127659574468085,442.18232774826214Z"></path><path class="line series2" d="M12.127659574468085,447.27890785282403L121.27659574468085,454.2162838535072L309.25531914893617,456.1791554717923L570,457.5220226218525"></path><path class="area series2" d="M12.127659574468085,437.724838096926L121.27659574468085,452.89342236841077L309.25531914893617,454.5302686172833L570,454.8864502731869L570,458.80277103050094L309.25531914893617,457.33389005258687L121.27659574468085,455.29545780979413L12.127659574468085,452.8025094081226Z"></path><path class="line series3" d="M12.127659574468085,172.31048316078093L121.27659574468085,169.73442214843828L309.25531914893617,247.39598088344218L570,337.78920464364654"></path><path class="area series3" d="M12.127659574468085,107.04748107842533L121.27659574468085,146.91566075072828L309.25531914893617,201.86307667217366L570,243.37026929774785L570,401.0273001831163L309.25531914893617,291.5975783742461L121.27659574468085,193.90234936434064L12.127659574468085,249.2625097581364Z"></path><path class="line series4" d="M12.127659574468085,287.6895168392191L121.27659574468085,290.2655778515617L309.25531914893617,212.60401911655788L570,122.21079535635351"></path><path class="area series4" d="M12.127659574468085,210.73749024186367L121.27659574468085,266.09765063565936L309.25531914893617,168.40242162575385L570,58.97269981688367L570,216.62973070225226L309.25531914893617,258.1369233278264L121.27659574468085,313.08433924927175L12.127659574468085,352.9525189215747Z"></path><rect class="bin" x="0" y="0" width="36.38297872340425" height="460"></rect><rect class="bin" x="36.38297872340425" y="0" width="181.91489361702128" height="460"></rect><rect class="bin" x="218.29787234042553" y="0" width="194.04255319148942" height="460"></rect><rect class="bin" x="412.34042553191495" y="0" width="157.65957446808505" height="460"></rect></g></svg>